<svg xmlns="http://www.w3.org/2000/svg" width="512" height="512" viewBox="0 0 512 512" fill="#ffffff">
  <path d="M 342.0 40.4
           L 316.3 46.1
           L 302.4 69.0
           L 299.5 105.0
           L 304.0 188.4
           L 295.4 222.3
           L 172.0 299.1
           L 134.4 313.8
           L 151.2 322.8
           L 119.7 331.4
           L 135.6 342.4
           L 165.5 351.0
           L 193.7 377.6
           L 231.3 393.1
           L 239.0 420.9
           L 234.1 458.1
           L 250.5 468.7
           L 274.6 471.6
           L 278.7 466.3
           L 292.2 464.6
           L 255.8 451.2
           L 251.3 442.6
           L 252.5 405.4
           L 264.4 393.1
           L 277.9 390.7
           L 287.3 400.1
           L 289.7 414.4
           L 285.2 451.6
           L 290.9 450.3
           L 296.7 458.9
           L 309.3 463.0
           L 337.5 463.4
           L 337.9 458.9
           L 348.6 456.9
           L 306.1 443.8
           L 301.6 426.2
           L 302.4 398.4
           L 318.3 371.1
           L 363.7 322.8
           L 380.9 276.2
           L 377.2 239.9
           L 342.0 159.3
           L 334.7 99.7
           L 342.0 85.4
           L 391.9 72.7
           Z"/>
</svg>
